<svg width="136" height="70" viewBox="0 0 136 70" fill="none" xmlns="http://www.w3.org/2000/svg">
<g clip-path="url(#clip0_87_1336)">
<rect width="136" height="70" fill="#00E0C6"/>
<path fill-rule="evenodd" clip-rule="evenodd" d="M46.398 -24.858L46.4573 -24.5911C46.6604 -23.4538 46.8404 -22.2934 47.059 -21.5337C50.0548 -11.1826 49.5054 1.00977 48.4955 11.6363C46.0666 37.0612 45.003 62.6128 44.4272 88.1503C44.2653 95.3057 44.9805 102.474 45.2832 109.616C45.375 111.729 45.5014 113.831 45.6222 115.938C45.6849 116.855 45.3347 118.785 45.3512 119.784C45.3548 120.504 45.5374 121.031 45.7015 121.333C46.135 122.085 46.7578 122.402 47.4491 122.451C47.8964 122.489 48.6163 122.439 49.3732 121.663C57.306 113.476 63.9646 98.9883 69.7431 82.6701C78.2305 58.7019 84.8979 30.7823 91.452 13.9376C93.178 9.50962 95.1397 -0.117126 97.8003 -8.12701C98.9732 -11.6811 100.229 -14.922 101.722 -17.0491C101.657 -14.9524 101.333 -12.349 101.399 -10.8627C101.686 -4.44121 100.981 2.00243 100.891 8.41995C100.61 27.9397 111.67 87.0033 116.718 106.009C120.796 121.384 152.312 206.641 187.364 246.212C188.117 247.062 189.412 247.143 190.262 246.389C191.112 245.636 191.187 244.335 190.44 243.49C155.808 204.394 124.715 120.145 120.685 104.955C115.696 86.1587 104.715 27.7742 104.997 8.48674C105.092 1.9821 105.786 -4.54302 105.498 -11.0458C105.393 -13.3914 106.066 -18.3076 105.591 -20.3727C105.324 -21.5386 104.705 -22.2324 104.093 -22.5604C103.342 -22.9574 102.29 -23.1321 100.994 -22.1849C98.8764 -20.6296 96.9469 -17.4087 95.3236 -13.3529C91.9508 -4.90394 89.6305 7.30286 87.6293 12.4523C81.0638 29.3202 74.3734 57.2867 65.8747 81.3015C61.1327 94.6818 55.8675 106.828 49.6826 114.977C49.5689 113.131 49.4726 111.291 49.3879 109.438C49.08 102.384 48.3713 95.3144 48.5278 88.2461C49.1099 62.8072 50.1623 37.3486 52.5801 12.0283C53.6399 0.907903 54.134 -11.8475 51.0082 -22.6743C50.5651 -24.1994 50.2301 -27.3627 49.5269 -28.6368C49.0757 -29.4534 48.4519 -29.8972 47.8528 -30.0742C47.12 -30.3029 46.2315 -30.2812 45.2831 -29.4634C41.3914 -26.1281 36.4273 -18.92 31.1988 -9.95078C19.3312 10.4279 5.8715 39.9786 -0.138212 51.8379C-4.17537 59.8023 -7.90937 67.9743 -12.1969 75.8064C-12.4098 76.1966 -17.0845 83.2873 -19.3152 86.6609C-20.3946 84.4711 -21.4506 81.1138 -22.5328 77.1993C-26.3237 63.4374 -29.6488 42.8902 -30.7366 36.6701C-32.8285 24.7407 -34.6071 12.7867 -36.9774 0.905134C-40.7175 -17.8455 -45.0666 -36.4479 -48.6037 -55.2402C-48.8066 -56.3542 -49.8845 -57.0864 -50.9927 -56.8777C-52.1125 -56.6688 -52.8447 -55.5909 -52.6359 -54.4828C-49.1046 -35.673 -44.7496 -17.0532 -41.0036 1.71485C-38.6393 13.5558 -36.8668 25.4809 -34.7809 37.3813C-33.6812 43.6593 -30.3144 64.398 -26.488 78.2875C-24.7374 84.6552 -22.7733 89.6282 -20.9869 91.5241C-20.4849 92.0443 -19.1686 92.7926 -17.6944 91.4438C-15.8098 89.7155 -8.89759 78.3336 -8.59255 77.7804C-4.2878 69.9075 -0.536525 61.695 3.52369 53.6956C9.51619 41.877 22.9243 12.4253 34.7516 -7.87774C39.0069 -15.187 43.0184 -21.3046 46.398 -24.858Z" fill="white"/>
</g>
<defs>
<clipPath id="clip0_87_1336">
<rect width="136" height="70" fill="white"/>
</clipPath>
</defs>
</svg>
