<svg width="58" height="37" viewBox="0 0 58 37" fill="none" xmlns="http://www.w3.org/2000/svg">
<path d="M57.4947 17.9102L0.535797 17.9102L0.535796 19.5587L57.4947 19.5587L57.4947 17.9102ZM38.3028 36.8337C38.3028 34.7069 39.2632 30.36 42.1683 26.5606C45.0406 22.8041 49.8294 19.5587 57.5828 19.5587L57.5828 17.9102C49.2906 17.9102 44.0273 21.4155 40.8588 25.5593C37.7233 29.66 36.6543 34.3627 36.6543 36.8337L38.3028 36.8337ZM36.6543 0.635223C36.6543 3.10618 37.7233 7.80891 40.8588 11.9097C44.0273 16.0534 49.2906 19.5587 57.5828 19.5587L57.5828 17.9102C49.8294 17.9102 45.0406 14.6648 42.1683 10.9084C39.2632 7.10895 38.3028 2.76206 38.3028 0.635223L36.6543 0.635223Z" fill="#020E10"/>
</svg>
