<svg width="34" height="53" viewBox="0 0 34 53" fill="none" xmlns="http://www.w3.org/2000/svg">
<path d="M17.4819 52.5805L17.4819 0.374046L15.9709 0.374046L15.9709 52.5805H17.4819ZM0.137329 34.9898C2.0867 34.9898 6.0709 35.8701 9.5533 38.5329C12.9963 41.1655 15.9709 45.5547 15.9709 52.6612H17.4819C17.4819 45.0609 14.2691 40.2367 10.471 37.3326C6.71246 34.4587 2.40211 33.4789 0.137329 33.4789V34.9898ZM33.3155 33.4789C31.0507 33.4789 26.7403 34.4587 22.9818 37.3326C19.1837 40.2367 15.9709 45.0609 15.9709 52.6612H17.4819C17.4819 45.5547 20.4565 41.1655 23.8995 38.5329C27.3819 35.8701 31.3661 34.9898 33.3155 34.9898V33.4789Z" fill="#020E10"/>
</svg>
